<?xml version="1.0" encoding="utf-8"?>
<!-- Generator: Adobe Illustrator 16.0.3, SVG Export Plug-In . SVG Version: 6.00 Build 0)  -->
<!DOCTYPE svg PUBLIC "-//W3C//DTD SVG 1.1//EN" "http://www.w3.org/Graphics/SVG/1.1/DTD/svg11.dtd">
<svg version="1.1" xmlns="http://www.w3.org/2000/svg" xmlns:xlink="http://www.w3.org/1999/xlink" x="0px" y="0px" width="500px"
	 height="500px" viewBox="0 0 500 500" enable-background="new 0 0 500 500" xml:space="preserve">
<g id="Capa_1_copia_2">
	<g>
		<path fill="#FFFFFF" d="M74.45,336.437l-43.912-118.74c-1.575-4.332-3.037-7.367-4.382-9.107
			c-1.346-1.738-3.364-3.003-6.055-3.791l-8.96-2.757l-0.197-4.234c6.499,0.264,14.112,0.394,22.843,0.394
			c8.861,0,18.018-0.13,27.47-0.394l0.394,4.234l-9.255,2.658c-1.313,0.33-2.265,0.805-2.855,1.428
			c-0.591,0.625-0.886,1.526-0.886,2.708c0,1.313,0.345,3.069,1.033,5.268c0.689,2.2,1.657,5.038,2.905,8.516l31.802,88.611
			l34.558-88.513c1.379-3.609,2.462-6.513,3.25-8.713c0.787-2.199,1.181-3.954,1.181-5.268c0-1.181-0.312-2.051-0.935-2.609
			c-0.625-0.557-1.56-1-2.807-1.329l-9.156-2.461l-0.197-4.529c7.154,0.264,14.375,0.394,21.661,0.394s14.276-0.13,20.972-0.394
			l0.394,4.234l-9.944,3.151c-2.298,0.657-4.036,1.757-5.219,3.298c-1.181,1.543-2.756,4.612-4.726,9.206l-49.13,117.952
			L74.45,336.437z"/>
		<path fill="#FFFFFF" d="M153.708,249.006c11.498-2.166,22.164-4.463,31.997-6.892l0.888,0.689
			c-0.394,8.532-0.591,17.919-0.591,28.158v37.808c0,7.877,0.065,13.326,0.197,16.344c0.131,1.773,0.951,2.922,2.461,3.447
			l11.422,3.347l0.196,4.037c-9.058-0.197-16.819-0.296-23.283-0.296c-6.468,0-14.13,0.099-22.991,0.296l-0.395-4.037l11.421-3.347
			c1.51-0.525,2.33-1.543,2.462-3.053c0.131-2.561,0.197-6.858,0.197-12.898v-32.885c0-8.599-0.133-16.541-0.394-23.826
			l-13.095-3.545L153.708,249.006z M186.986,207.26c0,3.48-1.083,6.318-3.248,8.517c-2.167,2.199-4.957,3.298-8.369,3.298
			c-3.283,0-5.957-1.017-8.024-3.052c-2.067-2.034-3.102-4.726-3.102-8.074c0-3.544,1.083-6.35,3.249-8.418
			c2.166-2.067,5.021-3.101,8.566-3.101c3.215,0,5.841,0.935,7.876,2.806C185.969,201.106,186.986,203.782,186.986,207.26z"/>
		<path fill="#FFFFFF" d="M204.493,219.83 M240.646,194.452l0.001,57.999c10.627-6.891,20.365-10.337,29.211-10.337
			c12.409,0,22.212,4.136,29.408,12.405c7.195,8.27,10.793,19.068,10.793,32.393c0,16.213-4.638,28.833-13.912,37.857
			c-9.273,9.024-22.128,13.538-38.563,13.538c-10.958,0-22.773-1.871-35.447-5.613c0.131-8.334,0.197-19.066,0.197-32.195
			l2.952-101.906 M240.646,327.279c5.306,1.708,10.679,2.561,16.115,2.561c11.005,0,19.275-3.38,24.811-10.142
			c5.535-6.76,8.304-16.441,8.304-29.045c0-11.552-2.556-20.544-7.665-26.978c-5.111-6.432-12.676-9.648-22.699-9.648
			c-6.419,0-12.708,1.444-18.865,4.332V327.279z"/>
		<path fill="#FFFFFF" d="M407.139,328.658c-5.58,3.48-11.322,5.974-17.23,7.482c-5.907,1.51-11.389,2.265-16.442,2.265
			c-14.441,0-26.108-4.118-35.001-12.355c-8.896-8.237-13.341-19.676-13.341-34.313c0-14.571,4.146-26.484,12.444-35.74
			c8.297-9.254,19.387-13.882,33.271-13.882c11.636,0,20.692,3.463,27.171,10.387c6.479,6.925,9.718,16.492,9.718,28.7
			c0,1.839-0.098,3.71-0.293,5.613h-62.129c0,14.113,3.314,24.204,9.945,30.274c6.629,6.072,16.999,9.107,31.112,9.107
			c6.301,0,13.028-0.59,20.184-1.771L407.139,328.658z M387.546,278.642v-2.953c0-9.32-1.463-15.983-4.389-19.987
			c-2.924-4.003-7.279-6.006-13.063-6.006c-7.648,0-13.499,2.824-17.548,8.467c-4.05,5.646-6.331,12.473-6.845,20.479H387.546z"/>
		<path fill="#FFFFFF" d="M470.25,252.059c-3.808-1.05-7.943-1.576-12.406-1.576c-6.17,0-11.143,1.199-14.916,3.593
			c-3.775,2.397-5.662,5.661-5.662,9.797c0,4.005,1.231,7.155,3.693,9.452c2.462,2.299,7.039,4.563,13.734,6.793l8.073,2.757
			c9.059,3.087,15.705,6.613,19.938,10.584c4.233,3.973,6.351,9.175,6.351,15.605c0,9.124-3.545,16.295-10.634,21.514
			s-16.049,7.827-26.879,7.827c-9.978,0-20.185-2.036-30.62-6.104c2.229-8.531,4.036-16.868,5.415-25.008l3.84-0.591l7.088,21.168
			c3.742,1.444,8.501,2.166,14.277,2.166c6.104,0,10.978-1.245,14.62-3.741c3.644-2.493,5.465-6.006,5.465-10.534
			c0-4.2-1.229-7.516-3.691-9.944s-6.386-4.529-11.767-6.302l-10.238-3.446c-8.862-2.954-14.983-6.513-18.363-10.683
			c-3.382-4.167-5.071-9.336-5.071-15.507c0-8.598,3.266-15.375,9.798-20.331c6.53-4.955,15.146-7.434,25.844-7.434
			c9.978,0,19.036,1.445,27.175,4.332c-1.839,7.483-3.512,15.393-5.021,23.729l-3.74,0.688L470.25,252.059z"/>
	</g>
	<path fill="#FFFFFF" d="M224.617,202.065l-16.963,23.107c0,0-7.747-32.457,12.154-34.594
		c-10.686-11.086,27.782-28.984,27.782-28.984s6.011,22.439-4.809,25.111c7.079,3.072,17.765,4.274,18.833,11.487
		c0,0-49.687-5.343-25.912,5.609"/>
</g>
<g id="Capa_1_copia">
	<g>
		<path fill="#FFFFFF" d="M74.45,336.437l-43.912-118.74c-1.575-4.332-3.037-7.367-4.382-9.107
			c-1.346-1.738-3.364-3.003-6.055-3.791l-8.96-2.757l-0.197-4.234c6.499,0.264,14.112,0.394,22.843,0.394
			c8.861,0,18.018-0.13,27.47-0.394l0.394,4.234l-9.255,2.658c-1.313,0.33-2.265,0.805-2.855,1.428
			c-0.591,0.625-0.886,1.526-0.886,2.708c0,1.313,0.345,3.069,1.033,5.268c0.689,2.2,1.657,5.038,2.905,8.516l31.802,88.611
			l34.558-88.513c1.379-3.609,2.462-6.513,3.25-8.713c0.787-2.199,1.181-3.954,1.181-5.268c0-1.181-0.312-2.051-0.935-2.609
			c-0.625-0.557-1.56-1-2.807-1.329l-9.156-2.461l-0.197-4.529c7.154,0.264,14.375,0.394,21.661,0.394s14.276-0.13,20.972-0.394
			l0.394,4.234l-9.944,3.151c-2.298,0.657-4.036,1.757-5.219,3.298c-1.181,1.543-2.756,4.612-4.726,9.206l-49.13,117.952
			L74.45,336.437z"/>
		<path fill="#FFFFFF" d="M153.708,249.006c11.498-2.166,22.164-4.463,31.997-6.892l0.888,0.689
			c-0.394,8.532-0.591,17.919-0.591,28.158v37.808c0,7.877,0.065,13.326,0.197,16.344c0.131,1.773,0.951,2.922,2.461,3.447
			l11.422,3.347l0.196,4.037c-9.058-0.197-16.819-0.296-23.283-0.296c-6.468,0-14.13,0.099-22.991,0.296l-0.395-4.037l11.421-3.347
			c1.51-0.525,2.33-1.543,2.462-3.053c0.131-2.561,0.197-6.858,0.197-12.898v-32.885c0-8.599-0.133-16.541-0.394-23.826
			l-13.095-3.545L153.708,249.006z M186.986,207.26c0,3.48-1.083,6.318-3.248,8.517c-2.167,2.199-4.957,3.298-8.369,3.298
			c-3.283,0-5.957-1.017-8.024-3.052c-2.067-2.034-3.102-4.726-3.102-8.074c0-3.544,1.083-6.35,3.249-8.418
			c2.166-2.067,5.021-3.101,8.566-3.101c3.215,0,5.841,0.935,7.876,2.806C185.969,201.106,186.986,203.782,186.986,207.26z"/>
		<path fill="#FFFFFF" d="M204.493,219.83 M240.646,194.452l0.001,57.999c10.627-6.891,20.365-10.337,29.211-10.337
			c12.409,0,22.212,4.136,29.408,12.405c7.195,8.27,10.793,19.068,10.793,32.393c0,16.213-4.638,28.833-13.912,37.857
			c-9.273,9.024-22.128,13.538-38.563,13.538c-10.958,0-22.773-1.871-35.447-5.613c0.131-8.334,0.197-19.066,0.197-32.195
			l2.952-101.906 M240.646,327.279c5.306,1.708,10.679,2.561,16.115,2.561c11.005,0,19.275-3.38,24.811-10.142
			c5.535-6.76,8.304-16.441,8.304-29.045c0-11.552-2.556-20.544-7.665-26.978c-5.111-6.432-12.676-9.648-22.699-9.648
			c-6.419,0-12.708,1.444-18.865,4.332V327.279z"/>
		<path fill="#FFFFFF" d="M407.139,328.658c-5.58,3.48-11.322,5.974-17.23,7.482c-5.907,1.51-11.389,2.265-16.442,2.265
			c-14.441,0-26.108-4.118-35.001-12.355c-8.896-8.237-13.341-19.676-13.341-34.313c0-14.571,4.146-26.484,12.444-35.74
			c8.297-9.254,19.387-13.882,33.271-13.882c11.636,0,20.692,3.463,27.171,10.387c6.479,6.925,9.718,16.492,9.718,28.7
			c0,1.839-0.098,3.71-0.293,5.613h-62.129c0,14.113,3.314,24.204,9.945,30.274c6.629,6.072,16.999,9.107,31.112,9.107
			c6.301,0,13.028-0.59,20.184-1.771L407.139,328.658z M387.546,278.642v-2.953c0-9.32-1.463-15.983-4.389-19.987
			c-2.924-4.003-7.279-6.006-13.063-6.006c-7.648,0-13.499,2.824-17.548,8.467c-4.05,5.646-6.331,12.473-6.845,20.479H387.546z"/>
		<path fill="#FFFFFF" d="M470.25,252.059c-3.808-1.05-7.943-1.576-12.406-1.576c-6.17,0-11.143,1.199-14.916,3.593
			c-3.775,2.397-5.662,5.661-5.662,9.797c0,4.005,1.231,7.155,3.693,9.452c2.462,2.299,7.039,4.563,13.734,6.793l8.073,2.757
			c9.059,3.087,15.705,6.613,19.938,10.584c4.233,3.973,6.351,9.175,6.351,15.605c0,9.124-3.545,16.295-10.634,21.514
			s-16.049,7.827-26.879,7.827c-9.978,0-20.185-2.036-30.62-6.104c2.229-8.531,4.036-16.868,5.415-25.008l3.84-0.591l7.088,21.168
			c3.742,1.444,8.501,2.166,14.277,2.166c6.104,0,10.978-1.245,14.62-3.741c3.644-2.493,5.465-6.006,5.465-10.534
			c0-4.2-1.229-7.516-3.691-9.944s-6.386-4.529-11.767-6.302l-10.238-3.446c-8.862-2.954-14.983-6.513-18.363-10.683
			c-3.382-4.167-5.071-9.336-5.071-15.507c0-8.598,3.266-15.375,9.798-20.331c6.53-4.955,15.146-7.434,25.844-7.434
			c9.978,0,19.036,1.445,27.175,4.332c-1.839,7.483-3.512,15.393-5.021,23.729l-3.74,0.688L470.25,252.059z"/>
	</g>
	<path fill="#FFFFFF" d="M224.617,202.065l-16.963,23.107c0,0-7.747-32.457,12.154-34.594
		c-10.686-11.086,27.782-28.984,27.782-28.984s6.011,22.439-4.809,25.111c7.079,3.072,17.765,4.274,18.833,11.487
		c0,0-49.687-5.343-25.912,5.609"/>
</g>
<g id="Capa_1" display="none">
	<g display="inline">
		<path d="M74.45,336.437l-43.912-118.74c-1.575-4.332-3.037-7.367-4.382-9.107c-1.346-1.738-3.364-3.003-6.055-3.791l-8.96-2.757
			l-0.197-4.234c6.499,0.264,14.112,0.394,22.843,0.394c8.861,0,18.018-0.13,27.47-0.394l0.394,4.234l-9.255,2.658
			c-1.313,0.33-2.265,0.805-2.855,1.428c-0.591,0.625-0.886,1.526-0.886,2.708c0,1.313,0.345,3.069,1.033,5.268
			c0.689,2.2,1.657,5.038,2.905,8.516l31.802,88.611l34.558-88.513c1.379-3.609,2.462-6.513,3.25-8.713
			c0.787-2.199,1.181-3.954,1.181-5.268c0-1.181-0.312-2.051-0.935-2.609c-0.625-0.557-1.56-1-2.807-1.329l-9.156-2.461
			l-0.197-4.529c7.154,0.264,14.375,0.394,21.661,0.394s14.276-0.13,20.972-0.394l0.394,4.234l-9.944,3.151
			c-2.298,0.657-4.036,1.757-5.219,3.298c-1.181,1.543-2.756,4.612-4.726,9.206l-49.13,117.952L74.45,336.437z"/>
		<path d="M153.708,249.006c11.498-2.166,22.164-4.463,31.997-6.892l0.888,0.689c-0.394,8.532-0.591,17.919-0.591,28.158v37.808
			c0,7.877,0.065,13.326,0.197,16.344c0.131,1.773,0.951,2.922,2.461,3.447l11.422,3.347l0.196,4.037
			c-9.058-0.197-16.819-0.296-23.283-0.296c-6.468,0-14.13,0.099-22.991,0.296l-0.395-4.037l11.421-3.347
			c1.51-0.525,2.33-1.543,2.462-3.053c0.131-2.561,0.197-6.858,0.197-12.898v-32.885c0-8.599-0.133-16.541-0.394-23.826
			l-13.095-3.545L153.708,249.006z M186.986,207.26c0,3.48-1.083,6.318-3.248,8.517c-2.167,2.199-4.957,3.298-8.369,3.298
			c-3.283,0-5.957-1.017-8.024-3.052c-2.067-2.034-3.102-4.726-3.102-8.074c0-3.544,1.083-6.35,3.249-8.418
			c2.166-2.067,5.021-3.101,8.566-3.101c3.215,0,5.841,0.935,7.876,2.806C185.969,201.106,186.986,203.782,186.986,207.26z"/>
		<path d="M204.493,219.83 M240.646,194.452l0.001,57.999c10.627-6.891,20.365-10.337,29.211-10.337
			c12.409,0,22.212,4.136,29.408,12.405c7.195,8.27,10.793,19.068,10.793,32.393c0,16.213-4.638,28.833-13.912,37.857
			c-9.273,9.024-22.128,13.538-38.563,13.538c-10.958,0-22.773-1.871-35.447-5.613c0.131-8.334,0.197-19.066,0.197-32.195
			l2.952-101.906 M240.646,327.279c5.306,1.708,10.679,2.561,16.115,2.561c11.005,0,19.275-3.38,24.811-10.142
			c5.535-6.76,8.304-16.441,8.304-29.045c0-11.552-2.556-20.544-7.665-26.978c-5.111-6.432-12.676-9.648-22.699-9.648
			c-6.419,0-12.708,1.444-18.865,4.332V327.279z"/>
		<path d="M407.139,328.658c-5.58,3.48-11.322,5.974-17.23,7.482c-5.907,1.51-11.389,2.265-16.442,2.265
			c-14.441,0-26.108-4.118-35.001-12.355c-8.896-8.237-13.341-19.676-13.341-34.313c0-14.571,4.146-26.484,12.444-35.74
			c8.297-9.254,19.387-13.882,33.271-13.882c11.636,0,20.692,3.463,27.171,10.387c6.479,6.925,9.718,16.492,9.718,28.7
			c0,1.839-0.098,3.71-0.293,5.613h-62.129c0,14.113,3.314,24.204,9.945,30.274c6.629,6.072,16.999,9.107,31.112,9.107
			c6.301,0,13.028-0.59,20.184-1.771L407.139,328.658z M387.546,278.642v-2.953c0-9.32-1.463-15.983-4.389-19.987
			c-2.924-4.003-7.279-6.006-13.063-6.006c-7.648,0-13.499,2.824-17.548,8.467c-4.05,5.646-6.331,12.473-6.845,20.479H387.546z"/>
		<path d="M470.25,252.059c-3.808-1.05-7.943-1.576-12.406-1.576c-6.17,0-11.143,1.199-14.916,3.593
			c-3.775,2.397-5.662,5.661-5.662,9.797c0,4.005,1.231,7.155,3.693,9.452c2.462,2.299,7.039,4.563,13.734,6.793l8.073,2.757
			c9.059,3.087,15.705,6.613,19.938,10.584c4.233,3.973,6.351,9.175,6.351,15.605c0,9.124-3.545,16.295-10.634,21.514
			s-16.049,7.827-26.879,7.827c-9.978,0-20.185-2.036-30.62-6.104c2.229-8.531,4.036-16.868,5.415-25.008l3.84-0.591l7.088,21.168
			c3.742,1.444,8.501,2.166,14.277,2.166c6.104,0,10.978-1.245,14.62-3.741c3.644-2.493,5.465-6.006,5.465-10.534
			c0-4.2-1.229-7.516-3.691-9.944s-6.386-4.529-11.767-6.302l-10.238-3.446c-8.862-2.954-14.983-6.513-18.363-10.683
			c-3.382-4.167-5.071-9.336-5.071-15.507c0-8.598,3.266-15.375,9.798-20.331c6.53-4.955,15.146-7.434,25.844-7.434
			c9.978,0,19.036,1.445,27.175,4.332c-1.839,7.483-3.512,15.393-5.021,23.729l-3.74,0.688L470.25,252.059z"/>
	</g>
	<path display="inline" d="M224.617,202.065l-16.963,23.107c0,0-7.747-32.457,12.154-34.594
		c-10.686-11.086,27.782-28.984,27.782-28.984s6.011,22.439-4.809,25.111c7.079,3.072,17.765,4.274,18.833,11.487
		c0,0-49.687-5.343-25.912,5.609"/>
</g>
<g id="v2">
</g>
</svg>
